<svg width="245" height="41" viewBox="0 0 245 41" fill="none" xmlns="http://www.w3.org/2000/svg">
<path d="M10.5 19C16.299 19 21 23.4772 21 29C21 34.5228 16.299 39 10.5 39C4.70101 39 -1.95703e-07 34.5228 -4.37114e-07 29C-6.78525e-07 23.4772 4.70101 19 10.5 19Z" fill="url(#paint0_radial_20_529)"/>
<path d="M10.5 14C16.299 14 21 18.4772 21 24C21 29.5228 16.299 34 10.5 34C4.70101 34 -1.95703e-07 29.5228 -4.37114e-07 24C-6.78525e-07 18.4772 4.70101 14 10.5 14Z" fill="url(#paint1_radial_20_529)"/>
<path d="M10.5 9C16.299 9 21 13.4772 21 19C21 24.5228 16.299 29 10.5 29C4.70101 29 -1.95703e-07 24.5228 -4.37114e-07 19C-6.78525e-07 13.4772 4.70101 9 10.5 9Z" fill="url(#paint2_radial_20_529)"/>
<path d="M39.368 32V16H49.864V19.136H42.888V32H39.368ZM56.2943 38.688H52.7743V16H56.2943V18.144C56.7849 17.4613 57.4889 16.8853 58.4062 16.416C59.3449 15.9253 60.3583 15.68 61.4463 15.68C63.6223 15.68 65.4463 16.4907 66.9183 18.112C68.4116 19.7333 69.1583 21.696 69.1583 24C69.1583 26.304 68.4116 28.2667 66.9183 29.888C65.4463 31.5093 63.6223 32.32 61.4463 32.32C60.3583 32.32 59.3449 32.0853 58.4062 31.616C57.4889 31.1253 56.7849 30.5387 56.2943 29.856V38.688ZM60.8063 29.12C62.1929 29.12 63.3343 28.6293 64.2303 27.648C65.1263 26.6667 65.5743 25.4507 65.5743 24C65.5743 22.5493 65.1263 21.3333 64.2303 20.352C63.3343 19.3707 62.1929 18.88 60.8063 18.88C59.3983 18.88 58.2463 19.3707 57.3503 20.352C56.4543 21.3333 56.0063 22.5493 56.0063 24C56.0063 25.4507 56.4543 26.6667 57.3503 27.648C58.2463 28.6293 59.3983 29.12 60.8063 29.12ZM85.927 29.92C84.327 31.52 82.343 32.32 79.975 32.32C77.607 32.32 75.6123 31.52 73.991 29.92C72.391 28.2987 71.591 26.3253 71.591 24C71.591 21.6747 72.391 19.712 73.991 18.112C75.6123 16.4907 77.607 15.68 79.975 15.68C82.343 15.68 84.327 16.4907 85.927 18.112C87.5483 19.712 88.359 21.6747 88.359 24C88.359 26.3253 87.5483 28.2987 85.927 29.92ZM79.975 29.056C81.3617 29.056 82.503 28.576 83.399 27.616C84.3163 26.6347 84.775 25.4293 84.775 24C84.775 22.5707 84.3163 21.376 83.399 20.416C82.503 19.4347 81.3617 18.944 79.975 18.944C78.567 18.944 77.4043 19.4347 76.487 20.416C75.591 21.376 75.143 22.5707 75.143 24C75.143 25.4293 75.591 26.6347 76.487 27.616C77.4043 28.576 78.567 29.056 79.975 29.056ZM99.1953 32.32C96.7846 32.32 94.7686 31.5307 93.1473 29.952C91.5473 28.352 90.7473 26.368 90.7473 24C90.7473 21.632 91.5473 19.6587 93.1473 18.08C94.7686 16.48 96.7846 15.68 99.1953 15.68C100.838 15.68 102.31 16.0747 103.611 16.864C104.934 17.6533 105.947 18.7307 106.651 20.096L103.579 21.76C103.174 20.9067 102.587 20.224 101.819 19.712C101.051 19.2 100.177 18.944 99.1953 18.944C97.7873 18.944 96.6246 19.4347 95.7073 20.416C94.7899 21.376 94.3313 22.5707 94.3313 24C94.3313 25.4293 94.7899 26.6347 95.7073 27.616C96.6246 28.576 97.7873 29.056 99.1953 29.056C100.177 29.056 101.051 28.8 101.819 28.288C102.587 27.776 103.174 27.0933 103.579 26.24L106.651 27.904C105.947 29.2693 104.934 30.3467 103.611 31.136C102.31 31.9253 100.838 32.32 99.1953 32.32ZM117.164 32.32C114.753 32.32 112.737 31.5307 111.116 29.952C109.516 28.352 108.716 26.368 108.716 24C108.716 21.632 109.516 19.6587 111.116 18.08C112.737 16.48 114.753 15.68 117.164 15.68C118.807 15.68 120.279 16.0747 121.58 16.864C122.903 17.6533 123.916 18.7307 124.62 20.096L121.548 21.76C121.143 20.9067 120.556 20.224 119.788 19.712C119.02 19.2 118.145 18.944 117.164 18.944C115.756 18.944 114.593 19.4347 113.676 20.416C112.759 21.376 112.3 22.5707 112.3 24C112.3 25.4293 112.759 26.6347 113.676 27.616C114.593 28.576 115.756 29.056 117.164 29.056C118.145 29.056 119.02 28.8 119.788 28.288C120.556 27.776 121.143 27.0933 121.548 26.24L124.62 27.904C123.916 29.2693 122.903 30.3467 121.58 31.136C120.279 31.9253 118.807 32.32 117.164 32.32ZM135.368 16H138.44L144.04 23.296L149.704 16H152.776V32H149.256V21.536L144.072 28.256L138.888 21.536V32H135.368V16ZM164.084 32.32C161.908 32.32 160.074 31.5093 158.58 29.888C157.108 28.2667 156.372 26.304 156.372 24C156.372 21.696 157.108 19.7333 158.58 18.112C160.074 16.4907 161.908 15.68 164.084 15.68C165.172 15.68 166.175 15.9253 167.092 16.416C168.01 16.8853 168.714 17.4613 169.204 18.144V16H172.724V32H169.204V29.856C168.714 30.5387 168.01 31.1253 167.092 31.616C166.175 32.0853 165.172 32.32 164.084 32.32ZM161.3 27.648C162.196 28.6293 163.338 29.12 164.724 29.12C166.111 29.12 167.252 28.6293 168.148 27.648C169.044 26.6667 169.492 25.4507 169.492 24C169.492 22.5493 169.044 21.3333 168.148 20.352C167.252 19.3707 166.111 18.88 164.724 18.88C163.338 18.88 162.196 19.3707 161.3 20.352C160.404 21.3333 159.956 22.5493 159.956 24C159.956 25.4507 160.404 26.6667 161.3 27.648ZM181.013 38.688H177.493V16H181.013V18.144C181.504 17.4613 182.208 16.8853 183.125 16.416C184.064 15.9253 185.077 15.68 186.165 15.68C188.341 15.68 190.165 16.4907 191.637 18.112C193.13 19.7333 193.877 21.696 193.877 24C193.877 26.304 193.13 28.2667 191.637 29.888C190.165 31.5093 188.341 32.32 186.165 32.32C185.077 32.32 184.064 32.0853 183.125 31.616C182.208 31.1253 181.504 30.5387 181.013 29.856V38.688ZM185.525 29.12C186.912 29.12 188.053 28.6293 188.949 27.648C189.845 26.6667 190.293 25.4507 190.293 24C190.293 22.5493 189.845 21.3333 188.949 20.352C188.053 19.3707 186.912 18.88 185.525 18.88C184.117 18.88 182.965 19.3707 182.069 20.352C181.173 21.3333 180.725 22.5493 180.725 24C180.725 25.4507 181.173 26.6667 182.069 27.648C182.965 28.6293 184.117 29.12 185.525 29.12ZM208.054 32L200.982 25.184V32H197.462V16H200.982V22.848L207.286 16H211.574L204.342 23.872L212.726 32H208.054ZM220.944 32.32C218.512 32.32 216.506 31.5413 214.928 29.984C213.37 28.4267 212.592 26.432 212.592 24C212.592 21.632 213.381 19.6587 214.96 18.08C216.538 16.48 218.533 15.68 220.944 15.68C223.162 15.68 224.997 16.384 226.448 17.792C227.92 19.2 228.656 21.1413 228.656 23.616C228.656 24.0427 228.645 24.4267 228.624 24.768H216.048C216.133 26.0693 216.634 27.1253 217.552 27.936C218.469 28.7253 219.61 29.12 220.976 29.12C223.024 29.12 224.549 28.3093 225.552 26.688L228.24 28.608C226.704 31.0827 224.272 32.32 220.944 32.32ZM216.208 22.208H225.104C224.912 21.0987 224.41 20.2347 223.6 19.616C222.81 18.976 221.882 18.656 220.816 18.656C219.706 18.656 218.714 18.9653 217.84 19.584C216.986 20.2027 216.442 21.0773 216.208 22.208ZM234.938 32V19.136H230.138V16H243.482V19.136H238.458V32H234.938Z" fill="black"/>
<defs>
<radialGradient id="paint0_radial_20_529" cx="0" cy="0" r="1" gradientUnits="userSpaceOnUse" gradientTransform="translate(6.90789 36.6316) rotate(-40.6629) scale(18.5775 19.3459)">
<stop stop-color="#FF5555"/>
<stop offset="1" stop-color="#FFDE31"/>
</radialGradient>
<radialGradient id="paint1_radial_20_529" cx="0" cy="0" r="1" gradientUnits="userSpaceOnUse" gradientTransform="translate(2.45 4) rotate(63.0922) scale(27.0685 28.4998)">
<stop stop-color="#FF5555"/>
<stop offset="1" stop-color="#FFDE31"/>
</radialGradient>
<radialGradient id="paint2_radial_20_529" cx="0" cy="0" r="1" gradientUnits="userSpaceOnUse" gradientTransform="translate(6.90789 26.6316) rotate(-40.6629) scale(18.5775 19.3459)">
<stop stop-color="#FF5555"/>
<stop offset="1" stop-color="#FFDE31"/>
</radialGradient>
</defs>
</svg>
